<?xml version="1.0" encoding="UTF-8" standalone="no"?>
<!-- Created with Inkscape (http://www.inkscape.org/) -->

<svg
   width="65.417526mm"
   height="32.689148mm"
   viewBox="0 0 65.417526 32.689148"
   version="1.1"
   id="svg5"
   xmlSpace="preserve"
   xmlns="http://www.w3.org/2000/svg"
   xmlnsSvg="http://www.w3.org/2000/svg"><defs
     id="defs2" /><g
     id="layer1"
     style="display:inline"
     transform="translate(-66.14583,-117.91156)"><path
       id="path3900"
       style="fill:#ff7700;fill-opacity:1;stroke:none;stroke-width:0.94198;stroke-dasharray:none;stroke-opacity:1"
       d="m 117.60105,128.92941 0.51711,0.51712 5.37801,5.37802 1.24103,-1.24103 -0.59855,-0.59855 -1.84263,-1.84263 -0.1518,0.15626 -0.24859,0.25612 -0.20985,-0.20375 -0.7347,-0.71313 -1e-4,-1.1e-4 0.41402,-0.42642 -2.52293,-2.52292 z m 3.76395,1.2819 0.93102,0.93103 4.36302,-4.49499 0.93499,-0.96326 -0.723,-0.723 -0.20793,-0.20792 z m 5.2981,-5.45814 0.26892,-0.27706 0.23324,-0.24036 0.20996,0.20366 -0.12424,0.12812 0.73469,0.71314 -0.39164,0.40344 2.72821,2.72821 1.24112,-1.24113 -0.51711,-0.51711 -3.89806,-3.89806 -1.48006,-1.48006 -1.24113,1.24112 z m -8.95875,7.38242 2.79246,2.79245 1.44803,-1.44802 -2.79246,-2.79247 z m 9.51511,-9.51513 2.79246,2.79247 1.44794,-1.44793 -2.79247,-2.79246 z m -14.93873,7.21824 h 1.06109 q 1.21543,0 1.21543,0.84887 0,0.58843 -0.43408,0.92605 -0.43408,0.32797 -1.19614,0.32797 h -1.23472 q -0.82959,0 -1.12862,-0.6463 -0.72347,0.6463 -1.39871,0.6463 h -1.09968 q -1.06109,0 -1.71704,-0.75241 -0.6463,-0.76206 -0.6463,-1.98713 0,-1.85209 1.27331,-3.30868 1.28296,-1.46624 2.89389,-1.46624 1.23472,0 1.80385,0.85852 0.48232,-0.72347 1.26367,-0.72347 0.42443,0 0.70418,0.2701 0.28938,0.27009 0.28938,0.66559 0,0.2701 -0.15434,0.6463 l -0.1061,0.26045 z m -3.5016,0.0482 h 0.24115 q 0.791,0 1.05145,-0.6463 l 0.67524,-1.66881 q 0.13505,-0.32797 0.13505,-0.54984 0,-0.26045 -0.26045,-0.45337 -0.25081,-0.19293 -0.60772,-0.19293 -0.70418,0 -1.36977,0.81994 -0.6656,0.81993 -0.6656,1.69774 0,0.99357 0.80065,0.99357 z m -6.30868,-3.40514 1.09003,-1.23472 q 0.72347,-0.81994 1.35048,-0.81994 0.43409,0 0.72347,0.28939 0.28939,0.27974 0.28939,0.70418 0,0.58842 -0.76205,1.35048 l -1.64952,1.63022 0.80064,1.87138 0.0868,0.19293 q 0.10611,0.24116 0.10611,0.47267 0,0.43408 -0.38585,0.79099 -0.37621,0.34727 -0.84888,0.34727 -0.56913,0 -0.8971,-0.69453 l -0.59807,-1.3119 -1.12862,1.19614 -0.20257,0.21222 q -0.569133,0.59807 -1.157553,0.59807 -0.43409,0 -0.72348,-0.27974 -0.27974,-0.28939 -0.27974,-0.71383 0,-0.53054 0.73312,-1.28295 l 1.717043,-1.76527 -0.742763,-1.72669 q -0.18328,-0.43408 -0.18328,-0.67524 0,-0.46302 0.376203,-0.82958 0.38585,-0.37621 0.85852,-0.37621 0.57878,0 0.90675,0.80065 z m -9.057867,2.63344 q 0,0.72347 1.090031,0.72347 h 2.864943 q 1.21544,0 1.21544,0.85852 0,0.58842 -0.43409,0.9164 -0.42443,0.32797 -1.19614,0.32797 h -2.729895 q -1.524114,0 -2.324756,-0.75241 -0.790996,-0.75241 -0.790996,-2.19935 0,-1.86174 1.254018,-3.21222 1.263664,-1.35048 2.999999,-1.35048 1.26366,0 2.02572,0.6656 0.7717,0.65594 0.7717,1.73633 0,1.30225 -1.06109,1.92926 -0.58842,0.35691 -1.75563,0.35691 z m 0.463022,-1.75562 h 1.061092 q 1.03215,0 1.00321,-0.45338 -0.0289,-0.51125 -0.66559,-0.51125 -0.887459,0 -1.398712,0.96463 z m -5.440507,2.47909 h 1.01286 q 1.225079,0 1.225079,0.85852 0,0.58842 -0.434083,0.9164 -0.424437,0.32797 -1.19614,0.32797 h -1.736332 q -0.713825,0 -1.128616,-0.33762 -0.41479,-0.33762 -0.41479,-0.90675 0,-0.29903 0.279742,-0.99357 l 3.897101,-9.58841 0.106109,-0.26045 q 0.443729,-1.08038 1.418005,-1.08038 0.405144,0 0.684886,0.27009 0.289389,0.2701 0.289389,0.64631 0,0.28938 -0.144695,0.65594 l -0.106109,0.26045 z m -6.771695,-5.14147 h 1.244371 0.250803 q 1.080385,0 1.080385,0.92604 0,0.57878 -0.44373,0.98392 -0.434083,0.3955 -1.080384,0.3955 h -0.250803 -1.736332 l -1.871381,4.62057 q -1.94855,4.78456 -5.76848,4.78456 -1.996782,0 -3.308678,-1.2926 -1.311895,-1.28296 -1.311895,-3.24115 0,-1.52412 0.771703,-2.91318 0.78135,-1.38907 2.180062,-2.39228 1.186493,-0.83923 2.758838,-1.33119 1.581992,-0.49196 3.115752,-0.49196 l 1.360126,-0.0386 0.424437,-0.01 1.852088,-4.65916 0.106109,-0.27009 q 0.221864,-0.59807 0.559485,-0.791 0.347266,-0.20257 1.157554,-0.20257 h 4.948547 q 1.340834,0 1.340834,0.94533 0,0.55949 -0.44373,0.96463 -0.443729,0.3955 -1.080384,0.3955 h -0.26045 -4.118965 z m -3.520896,2.30546 h -0.5209 q -2.855301,0 -4.562694,1.30225 -1.909965,1.45659 -1.909965,3.28939 0,0.98392 0.598069,1.64951 0.607717,0.6656 1.504822,0.6656 2.083598,0 3.424432,-3.30868 z m 47.902523,14.38584 -0.18328,0.44373 q -0.42444,0.95498 -1.20579,0.95498 -0.3955,0 -0.71383,-0.27009 -0.30868,-0.27974 -0.30868,-0.63666 0,-0.33762 0.27975,-0.8971 l 1.28295,-2.6045 q 0.47267,-0.93569 1.17685,-0.93569 0.3762,0 0.6463,0.2508 0.2701,0.24116 0.2701,0.57878 0,0.0868 -0.0579,0.37621 -0.0386,0.21221 -0.0386,0.3762 0,0.60772 0.45338,1.24437 l 0.54984,0.76206 q 0.83922,1.1672 0.83922,2.25723 0,1.21543 -0.90675,2.03537 -0.90675,0.81029 -2.25723,0.81029 h -2.01607 q -1.22508,0 -1.22508,-0.84888 0,-0.58842 0.43408,-0.91639 0.43408,-0.33762 1.19614,-0.33762 h 1.11897 q 1.34084,0 1.34084,-0.97428 0,-0.35691 -0.25081,-0.83923 z m -6.8971,0 -0.18328,0.44373 q -0.42444,0.95498 -1.20579,0.95498 -0.39549,0 -0.71382,-0.27009 -0.30868,-0.27974 -0.30868,-0.63666 0,-0.33762 0.27974,-0.8971 l 1.28296,-2.6045 q 0.47267,-0.93569 1.17684,-0.93569 0.37621,0 0.64631,0.2508 0.27009,0.24116 0.27009,0.57878 0,0.0868 -0.0579,0.37621 -0.0386,0.21221 -0.0386,0.3762 0,0.60772 0.45337,1.24437 l 0.54984,0.76206 q 0.83923,1.1672 0.83923,2.25723 0,1.21543 -0.90675,2.03537 -0.90675,0.81029 -2.25723,0.81029 h -2.01608 q -1.22508,0 -1.22508,-0.84888 0,-0.58842 0.43409,-0.91639 0.43408,-0.33762 1.19614,-0.33762 h 1.11897 q 1.34083,0 1.34083,-0.97428 0,-0.35691 -0.2508,-0.83923 z m -8.74919,1.91961 q 0,0.72348 1.09003,0.72348 h 2.86495 q 1.21544,0 1.21544,0.85851 0,0.58843 -0.43409,0.9164 -0.42443,0.32798 -1.19614,0.32798 h -2.7299 q -1.52411,0 -2.32475,-0.75241 -0.791,-0.75241 -0.791,-2.19936 0,-1.86173 1.25402,-3.21221 1.26366,-1.35048 2.99999,-1.35048 1.26367,0 2.02573,0.66559 0.7717,0.65595 0.7717,1.73633 0,1.30225 -1.06109,1.92926 -0.58843,0.35691 -1.75563,0.35691 z m 0.46303,-1.75562 h 1.06109 q 1.03215,0 1.00321,-0.45338 -0.0289,-0.51125 -0.66559,-0.51125 -0.88746,0 -1.39871,0.96463 z m -5.51768,2.4791 h 1.15755 q 1.22508,0 1.22508,0.85851 0,0.58843 -0.43408,0.9164 -0.43408,0.32798 -1.19614,0.32798 h -2.01607 q -0.58843,0 -0.99357,-0.35692 -0.3955,-0.35691 -0.3955,-0.8971 0,-0.32798 0.2701,-0.98392 l 0.84887,-2.10289 q 0.13505,-0.32798 0.14469,-0.53055 0.01,-0.23151 -0.19292,-0.3955 -0.19293,-0.16398 -0.50161,-0.16398 -0.99357,0 -1.60128,1.49517 l -1.13826,2.79742 q -0.51126,1.27331 -1.524123,1.27331 -0.41479,0 -0.70417,-0.2508 -0.28939,-0.2508 -0.28939,-0.61736 0,-0.2701 0.15434,-0.6463 l 0.10611,-0.26045 1.948543,-4.80385 q 0.37621,-0.93569 1.28296,-0.93569 0.74276,0 1.06109,0.65594 1.03215,-0.79099 1.96785,-0.79099 0.90675,0 1.49517,0.5209 0.58842,0.5209 0.58842,1.32154 0,0.44373 -0.21221,0.97427 z m -8.266873,-5.27652 h 0.29904 q 1.22508,0 1.22508,0.85851 0,0.58843 -0.43409,0.9164 -0.43408,0.32798 -1.19614,0.32798 h -0.70417 l -1.292607,3.17363 h 1.080387 q 1.22508,0 1.22508,0.85851 0,0.58843 -0.43409,0.9164 -0.42443,0.32798 -1.19614,0.32798 h -1.726683 q -0.733118,0 -1.167201,-0.33762 -0.424437,-0.33762 -0.424437,-0.9164 0,-0.35691 0.173633,-0.791 l 0.18328,-0.42443 1.138262,-2.80707 h -0.144695 q -1.080384,0 -1.080384,-0.83923 0,-0.59807 0.424437,-0.92604 0.434083,-0.33762 1.205786,-0.33762 h 0.443729 l 0.511253,-1.26367 0.10611,-0.26045 q 0.45338,-1.07074 1.42765,-1.07074 0.3955,0 0.67524,0.2701 0.28939,0.26045 0.28939,0.63665 0,0.36656 -0.2508,0.92605 z m -7.495163,5.27652 h 1.09003 q 1.215433,0 1.215433,0.85851 0,0.58843 -0.434083,0.9164 -0.424437,0.32798 -1.19614,0.32798 h -1.53376 q -0.848873,0 -1.340834,-0.34727 -0.482315,-0.34727 -0.482315,-0.94534 0,-0.31832 0.202573,-0.81028 l 1.591637,-3.9164 0.106109,-0.27009 q 0.44373,-1.09003 1.427651,-1.09003 0.405144,0 0.694533,0.27009 0.299035,0.2701 0.299035,0.6463 0,0.30868 -0.26045,0.94534 z m 1.27331,-8.35369 q 0.559484,0 0.945335,0.3955 0.395499,0.38585 0.395499,0.94533 0,0.55949 -0.395499,0.95499 -0.385851,0.38585 -0.945335,0.38585 -0.559485,0 -0.954983,-0.38585 -0.385852,-0.3955 -0.385852,-0.95499 0,-0.55948 0.385852,-0.94533 0.395498,-0.3955 0.954983,-0.3955 z m -8.141469,3.21221 h 1.244371 0.250804 q 1.080385,0 1.080385,0.92605 0,0.57877 -0.44373,0.98392 -0.434083,0.3955 -1.080384,0.3955 h -0.250803 -1.736332 l -1.871381,4.62057 q -1.94855,4.78456 -5.76848,4.78456 -1.996782,0 -3.308677,-1.2926 -1.311897,-1.28296 -1.311897,-3.24116 0,-1.52411 0.771704,-2.91318 0.78135,-1.38906 2.180062,-2.39228 1.186493,-0.83922 2.758838,-1.33118 1.581992,-0.49197 3.115752,-0.49197 l 1.360126,-0.0386 0.424436,-0.01 1.852088,-4.65915 0.106109,-0.2701 q 0.221864,-0.59807 0.559485,-0.791 0.347266,-0.20257 1.157554,-0.20257 h 4.948548 q 1.340834,0 1.340834,0.94534 0,0.55948 -0.443731,0.96463 -0.443729,0.39549 -1.080383,0.39549 h -0.260452 -4.118965 z m -3.520895,2.3055 h -0.520899 q -2.855302,0 -4.562696,1.30225 -1.909965,1.45658 -1.909965,3.28938 0,0.98392 0.598069,1.64952 0.607717,0.66559 1.504822,0.66559 2.083598,0 3.424432,-3.30868 z" /></g></svg>
